<svg width="424" height="68" viewBox="0 0 424 68" fill="none" xmlns="http://www.w3.org/2000/svg">
<g filter="url(#filter0_d_207_3)">
<path d="M16.208 3.472C11.1307 3.472 7.48267 6.77866 5.264 13.392C5.22133 13.52 5.09333 13.584 4.88 13.584C4.66667 13.5413 4.56 13.456 4.56 13.328C4.73067 11.6213 4.92267 9.424 5.136 6.736C5.34933 4.00533 5.456 1.95733 5.456 0.591999C5.456 0.378666 5.56267 0.271999 5.776 0.271999C6.032 0.271999 6.16 0.378666 6.16 0.591999C6.16 1.53067 7.376 2 9.808 2C13.4773 2.128 17.7653 2.192 22.672 2.192C25.1893 2.192 27.856 2.14933 30.672 2.064L35.024 2C36.6453 2 37.8187 1.89333 38.544 1.68C39.312 1.46666 39.8027 1.04 40.016 0.399998C40.0587 0.229331 40.1867 0.143997 40.4 0.143997C40.656 0.143997 40.784 0.229331 40.784 0.399998C40.656 1.68 40.5067 3.728 40.336 6.544C40.208 9.36 40.144 11.6213 40.144 13.328C40.144 13.456 40.0373 13.52 39.824 13.52C39.6107 13.52 39.4827 13.456 39.44 13.328C38.8 10.0427 37.6053 7.58933 35.856 5.968C34.1067 4.304 31.952 3.472 29.392 3.472C28.1547 3.472 27.3227 3.74933 26.896 4.304C26.512 4.816 26.32 5.81866 26.32 7.312V36.816C26.32 38.1387 26.448 39.0987 26.704 39.696C26.96 40.2933 27.4507 40.6987 28.176 40.912C28.9013 41.1253 30.0533 41.232 31.632 41.232C31.76 41.232 31.824 41.36 31.824 41.616C31.824 41.872 31.76 42 31.632 42C30.096 42 28.88 41.9787 27.984 41.936L22.672 41.872L17.488 41.936C16.592 41.9787 15.3547 42 13.776 42C13.648 42 13.584 41.872 13.584 41.616C13.584 41.36 13.648 41.232 13.776 41.232C15.312 41.232 16.4427 41.1253 17.168 40.912C17.936 40.6987 18.448 40.2933 18.704 39.696C19.0027 39.056 19.152 38.096 19.152 36.816V7.184C19.152 5.73333 18.96 4.752 18.576 4.24C18.192 3.728 17.4027 3.472 16.208 3.472ZM84.513 41.232C84.7263 41.232 84.833 41.36 84.833 41.616C84.833 41.872 84.7263 42 84.513 42C83.6597 42 82.337 41.9573 80.545 41.872C78.6677 41.7867 77.3237 41.744 76.513 41.744C75.4463 41.744 74.145 41.7867 72.609 41.872C71.1583 41.9573 70.0063 42 69.153 42C68.9823 42 68.897 41.872 68.897 41.616C68.897 41.36 68.9823 41.232 69.153 41.232C70.2623 41.232 71.0517 41.1253 71.521 40.912C72.033 40.656 72.289 40.2293 72.289 39.632C72.289 38.9067 71.8623 37.6907 71.009 35.984L64.353 22.864H52.961L48.417 32.912C47.8623 34.1493 47.585 35.3013 47.585 36.368C47.585 37.904 48.1183 39.0987 49.185 39.952C50.2943 40.8053 51.7663 41.232 53.601 41.232C53.8143 41.232 53.921 41.36 53.921 41.616C53.921 41.872 53.8143 42 53.601 42C52.833 42 51.7237 41.9573 50.273 41.872C48.6517 41.7867 47.2437 41.744 46.049 41.744C44.897 41.744 43.5103 41.7867 41.889 41.872C40.4383 41.9573 39.265 42 38.369 42C38.1983 42 38.113 41.872 38.113 41.616C38.113 41.36 38.1983 41.232 38.369 41.232C39.5637 41.232 40.5663 40.9973 41.377 40.528C42.1877 40.016 42.9983 39.1413 43.809 37.904C44.6197 36.624 45.5797 34.7467 46.689 32.272L60.577 1.744C60.6623 1.616 60.8543 1.552 61.153 1.552C61.4943 1.552 61.6863 1.616 61.729 1.744L77.729 33.232C79.2223 36.2613 80.4597 38.352 81.441 39.504C82.4223 40.656 83.4463 41.232 84.513 41.232ZM53.793 21.072H63.457L58.337 10.96L53.793 21.072ZM130.71 2C130.795 2 130.838 2.128 130.838 2.384C130.838 2.64 130.795 2.768 130.71 2.768C129.003 2.768 127.659 3.45066 126.678 4.816C125.696 6.13867 125.206 7.93067 125.206 10.192V42.96C125.206 43.088 125.099 43.1733 124.886 43.216C124.715 43.2587 124.587 43.2373 124.502 43.152L94.4855 8.976V33.872C94.4855 36.1333 94.9548 37.9253 95.8935 39.248C96.8322 40.5707 98.1335 41.232 99.7975 41.232C99.8828 41.232 99.9255 41.36 99.9255 41.616C99.9255 41.872 99.8828 42 99.7975 42C98.6028 42 97.6855 41.9787 97.0455 41.936L93.5895 41.872L89.6215 41.936C88.8962 41.9787 87.8508 42 86.4855 42C86.3575 42 86.2935 41.872 86.2935 41.616C86.2935 41.36 86.3575 41.232 86.4855 41.232C88.3628 41.232 89.8348 40.5707 90.9015 39.248C92.0108 37.9253 92.5655 36.1333 92.5655 33.872V6.8C91.1575 5.264 89.9415 4.21866 88.9175 3.664C87.9362 3.06666 86.9122 2.768 85.8455 2.768C85.7602 2.768 85.7175 2.64 85.7175 2.384C85.7175 2.128 85.7602 2 85.8455 2L88.5335 2.064C89.0882 2.10667 89.8988 2.128 90.9655 2.128L95.8295 2.064C96.4268 2.02133 97.1522 2 98.0055 2C98.3468 2 98.6028 2.08533 98.7735 2.256C98.9442 2.42666 99.2428 2.78933 99.6695 3.344C100.395 4.32533 100.907 4.98667 101.206 5.328L123.35 30.864V10.192C123.35 7.888 122.88 6.07467 121.942 4.752C121.003 3.42933 119.702 2.768 118.038 2.768C117.952 2.768 117.91 2.64 117.91 2.384C117.91 2.128 117.952 2 118.038 2L120.79 2.064C122.155 2.14933 123.307 2.192 124.246 2.192C125.099 2.192 126.294 2.14933 127.83 2.064L130.71 2ZM168.044 10.192C168.044 7.888 167.511 6.07467 166.444 4.752C165.42 3.42933 163.969 2.768 162.092 2.768C162.007 2.768 161.964 2.64 161.964 2.384C161.964 2.128 162.007 2 162.092 2L165.164 2.064C166.785 2.14933 168.087 2.192 169.068 2.192C169.879 2.192 171.052 2.14933 172.588 2.064L175.532 2C175.617 2 175.66 2.128 175.66 2.384C175.66 2.64 175.617 2.768 175.532 2.768C173.868 2.768 172.567 3.42933 171.628 4.752C170.689 6.07467 170.22 7.888 170.22 10.192V27.984C170.22 30.9707 169.559 33.5947 168.236 35.856C166.913 38.1173 165.036 39.8667 162.604 41.104C160.215 42.2987 157.441 42.896 154.284 42.896C151.127 42.896 148.332 42.2987 145.9 41.104C143.468 39.9093 141.548 38.1813 140.14 35.92C138.775 33.616 138.092 30.928 138.092 27.856V7.184C138.092 5.904 137.964 4.96533 137.708 4.368C137.495 3.77066 137.068 3.36533 136.428 3.152C135.831 2.896 134.871 2.768 133.548 2.768C133.42 2.768 133.356 2.64 133.356 2.384C133.356 2.128 133.42 2 133.548 2L136.94 2.064C138.903 2.14933 140.46 2.192 141.612 2.192C142.892 2.192 144.513 2.14933 146.476 2.064L149.74 2C149.868 2 149.932 2.128 149.932 2.384C149.932 2.64 149.868 2.768 149.74 2.768C148.417 2.768 147.436 2.896 146.796 3.152C146.199 3.408 145.772 3.856 145.516 4.496C145.303 5.09333 145.196 6.032 145.196 7.312V25.616C145.196 30.6933 146.199 34.448 148.204 36.88C150.209 39.312 153.047 40.528 156.716 40.528C160.257 40.528 163.031 39.4613 165.036 37.328C167.041 35.152 168.044 32.0587 168.044 28.048V10.192ZM191.476 37.712C191.476 42.1493 191.071 45.712 190.26 48.4C189.492 51.088 188.169 53.2853 186.292 54.992C184.415 56.6987 181.727 58.2347 178.228 59.6H178.164C178.036 59.6 177.929 59.4933 177.844 59.28C177.801 59.1093 177.823 58.9813 177.908 58.896C180.297 57.36 181.961 55.0133 182.9 51.856C183.839 48.7413 184.308 44.6027 184.308 39.44V7.184C184.308 5.904 184.18 4.96533 183.924 4.368C183.711 3.77066 183.284 3.36533 182.644 3.152C182.004 2.896 181.001 2.768 179.636 2.768C179.551 2.768 179.508 2.64 179.508 2.384C179.508 2.128 179.551 2 179.636 2L183.284 2.064C185.247 2.14933 186.761 2.192 187.828 2.192C188.98 2.192 190.452 2.14933 192.244 2.064L195.316 2C195.401 2 195.444 2.128 195.444 2.384C195.444 2.64 195.401 2.768 195.316 2.768C194.207 2.768 193.375 2.896 192.82 3.152C192.308 3.408 191.945 3.856 191.732 4.496C191.561 5.09333 191.476 6.032 191.476 7.312V37.712ZM255.434 41.232C255.562 41.232 255.626 41.36 255.626 41.616C255.626 41.872 255.562 42 255.434 42H248.266C247.583 42 247.007 42.0213 246.538 42.064C246.068 42.1067 245.684 42.128 245.386 42.128C244.703 42.128 244.106 41.9787 243.594 41.68C243.124 41.3387 242.527 40.7413 241.802 39.888C241.119 39.0347 239.882 37.392 238.09 34.96C237.876 34.6613 237.62 34.3413 237.322 34C237.066 33.616 236.767 33.1893 236.426 32.72L228.042 21.456L226.634 22.864V36.816C226.634 38.1387 226.74 39.0987 226.954 39.696C227.167 40.2933 227.572 40.6987 228.17 40.912C228.81 41.1253 229.812 41.232 231.178 41.232C231.348 41.232 231.434 41.36 231.434 41.616C231.434 41.872 231.348 42 231.178 42C229.77 42 228.66 41.9787 227.85 41.936L223.05 41.872L218.314 41.936C217.46 41.9787 216.308 42 214.858 42C214.772 42 214.73 41.872 214.73 41.616C214.73 41.36 214.772 41.232 214.858 41.232C216.223 41.232 217.226 41.1253 217.866 40.912C218.506 40.6987 218.932 40.2933 219.146 39.696C219.402 39.056 219.53 38.096 219.53 36.816V7.184C219.53 5.904 219.402 4.96533 219.146 4.368C218.932 3.77066 218.506 3.36533 217.866 3.152C217.268 2.896 216.308 2.768 214.986 2.768C214.858 2.768 214.794 2.64 214.794 2.384C214.794 2.128 214.858 2 214.986 2L218.378 2.064C220.34 2.14933 221.898 2.192 223.05 2.192C224.33 2.192 225.951 2.14933 227.914 2.064L231.178 2C231.306 2 231.37 2.128 231.37 2.384C231.37 2.64 231.306 2.768 231.178 2.768C229.855 2.768 228.874 2.896 228.234 3.152C227.636 3.408 227.21 3.856 226.954 4.496C226.74 5.09333 226.634 6.032 226.634 7.312V20.88L238.666 8.592C239.903 7.35467 240.522 6.224 240.522 5.2C240.522 4.432 240.18 3.83466 239.498 3.408C238.815 2.98133 237.855 2.768 236.618 2.768C236.49 2.768 236.426 2.64 236.426 2.384C236.426 2.128 236.49 2 236.618 2L239.626 2.064C241.503 2.14933 243.252 2.192 244.874 2.192C246.623 2.192 248.436 2.14933 250.314 2.064L253.194 2C253.322 2 253.386 2.128 253.386 2.384C253.386 2.64 253.322 2.768 253.194 2.768C251.231 2.768 249.076 3.344 246.729 4.496C244.383 5.60533 242.25 7.09867 240.33 8.976L233.098 16.336L242.57 29.136C245.343 33.104 247.412 35.92 248.778 37.584C250.186 39.2053 251.316 40.2293 252.17 40.656C253.023 41.04 254.111 41.232 255.434 41.232ZM291.419 10.192C291.419 7.888 290.886 6.07467 289.819 4.752C288.795 3.42933 287.344 2.768 285.467 2.768C285.382 2.768 285.339 2.64 285.339 2.384C285.339 2.128 285.382 2 285.467 2L288.539 2.064C290.16 2.14933 291.462 2.192 292.443 2.192C293.254 2.192 294.427 2.14933 295.963 2.064L298.907 2C298.992 2 299.035 2.128 299.035 2.384C299.035 2.64 298.992 2.768 298.907 2.768C297.243 2.768 295.942 3.42933 295.003 4.752C294.064 6.07467 293.595 7.888 293.595 10.192V27.984C293.595 30.9707 292.934 33.5947 291.611 35.856C290.288 38.1173 288.411 39.8667 285.979 41.104C283.59 42.2987 280.816 42.896 277.659 42.896C274.502 42.896 271.707 42.2987 269.275 41.104C266.843 39.9093 264.923 38.1813 263.515 35.92C262.15 33.616 261.467 30.928 261.467 27.856V7.184C261.467 5.904 261.339 4.96533 261.083 4.368C260.87 3.77066 260.443 3.36533 259.803 3.152C259.206 2.896 258.246 2.768 256.923 2.768C256.795 2.768 256.731 2.64 256.731 2.384C256.731 2.128 256.795 2 256.923 2L260.315 2.064C262.278 2.14933 263.835 2.192 264.987 2.192C266.267 2.192 267.888 2.14933 269.851 2.064L273.115 2C273.243 2 273.307 2.128 273.307 2.384C273.307 2.64 273.243 2.768 273.115 2.768C271.792 2.768 270.811 2.896 270.171 3.152C269.574 3.408 269.147 3.856 268.891 4.496C268.678 5.09333 268.571 6.032 268.571 7.312V25.616C268.571 30.6933 269.574 34.448 271.579 36.88C273.584 39.312 276.422 40.528 280.091 40.528C283.632 40.528 286.406 39.4613 288.411 37.328C290.416 35.152 291.419 32.0587 291.419 28.048V10.192ZM353.187 41.232C353.272 41.232 353.315 41.36 353.315 41.616C353.315 41.872 353.272 42 353.187 42C351.736 42 350.584 41.9787 349.731 41.936L344.995 41.872L340.195 41.936C339.384 41.9787 338.275 42 336.867 42C336.739 42 336.675 41.872 336.675 41.616C336.675 41.36 336.739 41.232 336.867 41.232C338.659 41.232 339.875 41.0187 340.515 40.592C341.155 40.1653 341.475 39.2693 341.475 37.904L341.411 36.816L340.067 10.64L326.883 41.552C326.798 41.7227 326.627 41.808 326.371 41.808C326.115 41.808 325.944 41.7227 325.859 41.552L309.667 10.768L309.155 33.872C309.112 36.176 309.56 37.9893 310.499 39.312C311.48 40.592 312.846 41.232 314.595 41.232C314.723 41.232 314.787 41.36 314.787 41.616C314.787 41.872 314.723 42 314.595 42C313.443 42 312.547 41.9787 311.907 41.936L308.387 41.872L304.355 41.936C303.672 41.9787 302.755 42 301.603 42C301.475 42 301.411 41.872 301.411 41.616C301.411 41.36 301.475 41.232 301.603 41.232C303.352 41.232 304.739 40.5707 305.763 39.248C306.787 37.9253 307.32 36.1333 307.363 33.872L307.939 7.376L307.875 7.312C307.022 5.73333 306.126 4.58133 305.187 3.856C304.291 3.13066 303.246 2.768 302.051 2.768C301.923 2.768 301.859 2.64 301.859 2.384C301.859 2.128 301.923 2 302.051 2L305.059 2.064C305.656 2.10667 306.424 2.128 307.363 2.128L310.755 2.064C311.139 2.02133 311.63 2 312.227 2C312.782 2 313.208 2.192 313.507 2.576C313.806 2.96 314.36 3.87733 315.171 5.328L329.123 31.504L341.283 3.6C341.539 3.00267 341.795 2.59733 342.051 2.384C342.35 2.128 342.734 2 343.203 2C343.587 2 344.014 2.02133 344.483 2.064C344.995 2.10667 345.571 2.128 346.211 2.128L349.987 2.064C350.584 2.02133 351.438 2 352.547 2C352.675 2 352.739 2.128 352.739 2.384C352.739 2.64 352.675 2.768 352.547 2.768C350.542 2.768 349.091 3.17333 348.195 3.984C347.299 4.79466 346.894 6.05333 346.979 7.76L348.515 36.816C348.6 38.1387 348.75 39.0987 348.963 39.696C349.219 40.2933 349.646 40.6987 350.243 40.912C350.883 41.1253 351.864 41.232 353.187 41.232ZM400.638 41.232C400.851 41.232 400.958 41.36 400.958 41.616C400.958 41.872 400.851 42 400.638 42C399.785 42 398.462 41.9573 396.67 41.872C394.793 41.7867 393.449 41.744 392.638 41.744C391.571 41.744 390.27 41.7867 388.734 41.872C387.283 41.9573 386.131 42 385.278 42C385.107 42 385.022 41.872 385.022 41.616C385.022 41.36 385.107 41.232 385.278 41.232C386.387 41.232 387.177 41.1253 387.646 40.912C388.158 40.656 388.414 40.2293 388.414 39.632C388.414 38.9067 387.987 37.6907 387.134 35.984L380.478 22.864H369.086L364.542 32.912C363.987 34.1493 363.71 35.3013 363.71 36.368C363.71 37.904 364.243 39.0987 365.31 39.952C366.419 40.8053 367.891 41.232 369.726 41.232C369.939 41.232 370.046 41.36 370.046 41.616C370.046 41.872 369.939 42 369.726 42C368.958 42 367.849 41.9573 366.398 41.872C364.777 41.7867 363.369 41.744 362.174 41.744C361.022 41.744 359.635 41.7867 358.014 41.872C356.563 41.9573 355.39 42 354.494 42C354.323 42 354.238 41.872 354.238 41.616C354.238 41.36 354.323 41.232 354.494 41.232C355.689 41.232 356.691 40.9973 357.502 40.528C358.313 40.016 359.123 39.1413 359.934 37.904C360.745 36.624 361.705 34.7467 362.814 32.272L376.702 1.744C376.787 1.616 376.979 1.552 377.278 1.552C377.619 1.552 377.811 1.616 377.854 1.744L393.854 33.232C395.347 36.2613 396.585 38.352 397.566 39.504C398.547 40.656 399.571 41.232 400.638 41.232ZM369.918 21.072H379.582L374.462 10.96L369.918 21.072ZM415.091 36.816C415.091 38.1387 415.197 39.0987 415.411 39.696C415.624 40.2933 416.029 40.6987 416.627 40.912C417.267 41.1253 418.269 41.232 419.635 41.232C419.763 41.232 419.827 41.36 419.827 41.616C419.827 41.872 419.763 42 419.635 42C418.227 42 417.117 41.9787 416.307 41.936L411.443 41.872L406.707 41.936C405.853 41.9787 404.701 42 403.251 42C403.165 42 403.123 41.872 403.123 41.616C403.123 41.36 403.165 41.232 403.251 41.232C404.616 41.232 405.619 41.1253 406.259 40.912C406.899 40.6987 407.325 40.2933 407.539 39.696C407.795 39.056 407.923 38.096 407.923 36.816V7.184C407.923 5.904 407.795 4.96533 407.539 4.368C407.325 3.77066 406.899 3.36533 406.259 3.152C405.619 2.896 404.616 2.768 403.251 2.768C403.165 2.768 403.123 2.64 403.123 2.384C403.123 2.128 403.165 2 403.251 2L406.707 2.064C408.669 2.14933 410.248 2.192 411.443 2.192C412.765 2.192 414.408 2.14933 416.371 2.064L419.635 2C419.763 2 419.827 2.128 419.827 2.384C419.827 2.64 419.763 2.768 419.635 2.768C418.312 2.768 417.331 2.896 416.691 3.152C416.051 3.408 415.624 3.856 415.411 4.496C415.197 5.09333 415.091 6.032 415.091 7.312V36.816Z" fill="black"/>
</g>
<defs>
<filter id="filter0_d_207_3" x="0.559998" y="0.143997" width="423.267" height="67.456" filterUnits="userSpaceOnUse" color-interpolation-filters="sRGB">
<feFlood flood-opacity="0" result="BackgroundImageFix"/>
<feColorMatrix in="SourceAlpha" type="matrix" values="0 0 0 0 0 0 0 0 0 0 0 0 0 0 0 0 0 0 127 0" result="hardAlpha"/>
<feOffset dy="4"/>
<feGaussianBlur stdDeviation="2"/>
<feComposite in2="hardAlpha" operator="out"/>
<feColorMatrix type="matrix" values="0 0 0 0 0 0 0 0 0 0 0 0 0 0 0 0 0 0 0.25 0"/>
<feBlend mode="normal" in2="BackgroundImageFix" result="effect1_dropShadow_207_3"/>
<feBlend mode="normal" in="SourceGraphic" in2="effect1_dropShadow_207_3" result="shape"/>
</filter>
</defs>
</svg>
